<svg width="16" height="17" viewBox="0 0 16 17" fill="none" xmlns="http://www.w3.org/2000/svg">
<path d="M0.700195 8.49976C0.700287 8.28771 0.784622 8.08427 0.93457 7.93433C1.08458 7.7844 1.28791 7.69995 1.5 7.69995L12.5674 7.69995L9.93359 5.06616C9.78355 4.91603 9.69922 4.71201 9.69922 4.49976C9.69931 4.28769 9.78372 4.08436 9.93359 3.93433C10.0837 3.78418 10.2877 3.69995 10.5 3.69995C10.7123 3.69995 10.9163 3.78418 11.0664 3.93433L15.0664 7.93433C15.1406 8.00848 15.2 8.09624 15.2402 8.19312C15.2805 8.2902 15.3007 8.39465 15.3008 8.49976C15.3008 8.60483 15.2804 8.70933 15.2402 8.8064C15.2 8.9034 15.1407 8.99194 15.0664 9.06616L11.0664 13.0662C10.9163 13.2163 10.7123 13.3005 10.5 13.3005C10.2877 13.3005 10.0837 13.2163 9.93359 13.0662C9.78355 12.916 9.69922 12.712 9.69922 12.4998C9.69931 12.2877 9.78373 12.0844 9.93359 11.9343L12.5674 9.30054H1.5C1.28797 9.30054 1.08457 9.21599 0.93457 9.06616C0.784541 8.91613 0.700195 8.71193 0.700195 8.49976Z" fill="black" stroke="black" stroke-width="0.6"/>
</svg>
